<?xml version="1.0" encoding="utf-8"?>
<!-- Generator: Adobe Illustrator 22.1.0, SVG Export Plug-In . SVG Version: 6.00 Build 0)  -->
<svg version="1.1" id="Artboard" xmlns="http://www.w3.org/2000/svg" xmlns:xlink="http://www.w3.org/1999/xlink" x="0px" y="0px"
	 viewBox="0 0 627.9 189.6" style="enable-background:new 0 0 627.9 189.6;" xml:space="preserve">
<style type="text/css">
	.st0{fill:#CCCCCC;}
	.st1{fill:url(#SVGID_1_);}
	.st2{fill:url(#SVGID_2_);}
	.st3{fill:url(#SVGID_3_);}
	.st4{fill:#FFFFFF;}
</style>
<g>
	<g>
		<g>
			<path class="st0" d="M608.4,26.2c-5.9,0-10.6,2.1-14.4,4.2c-3.8-2.1-8.5-4.2-14.4-4.2c-11.8,0-19.5,7.7-19.5,20.8
				c0,16,15.3,31.6,33.9,44.2C612.6,78.7,627.9,63,627.9,47C627.9,33.9,620.1,26.2,608.4,26.2z"/>
			<linearGradient id="SVGID_1_" gradientUnits="userSpaceOnUse" x1="561.9946" y1="65.8935" x2="606.7827" y2="65.8935">
				<stop  offset="0" style="stop-color:#3656CC"/>
				<stop  offset="0.35" style="stop-color:#304CB2"/>
				<stop  offset="0.72" style="stop-color:#283B80"/>
			</linearGradient>
			<path class="st1" d="M562,47.3c0,16.4,17.3,31.6,32,41.7c4.2-2.9,8.6-6.2,12.8-9.9c-19.5-16.4-37.8-31-44.4-36.2
				C562.1,44.2,562,45.7,562,47.3z"/>
			<linearGradient id="SVGID_2_" gradientUnits="userSpaceOnUse" x1="568.356" y1="30.5141" x2="618.9539" y2="65.9432">
				<stop  offset="0.3" style="stop-color:#E61C23"/>
				<stop  offset="0.8" style="stop-color:#C3161C"/>
			</linearGradient>
			<path class="st2" d="M624.7,54.9c-14.2-11.7-22.7-17.6-31.9-23.1c-2.5-1.5-7.4-3.7-13-3.7c-5.3,0-9.8,1.7-12.9,4.9
				c-2,2.1-3.4,4.7-4.2,7.9C570,46,589.9,60.3,610,76.1C616.7,69.8,622.3,62.5,624.7,54.9z"/>
			<linearGradient id="SVGID_3_" gradientUnits="userSpaceOnUse" x1="599.7222" y1="25.9368" x2="628.653" y2="46.1944">
				<stop  offset="0" style="stop-color:#FDBC11"/>
				<stop  offset="0.25" style="stop-color:#FCB415"/>
				<stop  offset="0.8" style="stop-color:#F89E1C"/>
			</linearGradient>
			<path class="st3" d="M621.1,33c-3-3.2-7.5-4.9-12.6-4.9c-5.5,0-9.7,1.8-12.6,3.4c5.5,3.1,17.4,10,29.8,19.1
				c0.2-1.2,0.3-2.5,0.3-3.7C625.9,41.1,624.2,36.2,621.1,33z"/>
		</g>
	</g>
	<g>
		<path class="st4" d="M97,26.1c-17.9,0-32.3,12.5-32.3,32.4c0,19.8,14.3,32.6,32.2,32.6c17.9,0,32.3-12.7,32.3-32.6
			C129.2,38.7,114.8,26.1,97,26.1z M96.9,74c-7.7,0-13.8-5.5-13.8-15.5c0-10,6-15.3,13.8-15.2c7.9,0,13.7,5.2,13.7,15.3
			C110.6,68.6,104.6,74,96.9,74z M60.8,64.7c0,14.5-11.2,26.4-32.9,26.4c-10.5,0-19.2-2.3-27.9-5.8l3.7-17.5c8,3.7,15.7,6,24,6
			c9.1,0,13.5-2.9,13.5-8.2c0-4.4-3.4-6.1-14.9-9.7c-3.9-1.2-7.5-2.4-10.6-3.6C5.2,48.1,0.3,40.8,0.3,30c0-14.5,11.7-25.9,33-25.8
			C42.5,4.2,50,6.1,57.9,9l-3.7,17.3c-6.9-2.6-13.6-4.5-21.2-4.5c-9.2,0-13.2,2.4-13.2,7.8c0,4.5,3.2,6.2,13.5,9.1
			c3.9,1.1,7.6,2.3,10.8,3.5C54.1,46,60.8,52.8,60.8,64.7z M172,28h18v59c-10.1,2.6-18.6,4-27.8,4c-19,0-28.3-7.4-28.3-24l0-39h18
			l0,37.2c0,6.1,1.7,9.3,11.1,9.3c3.4,0,6.3-0.4,9-0.9L172,28z M299.2,50.2l0,39.6h-18.1l0-37.7c0-6.4-1.9-9.1-8.8-9.1
			c-4.3,0-8,1.2-11.2,2.4l0,44.3H243L243,0h18.1l0,29.1c3.9-1.4,9.5-2.7,15.3-2.7C292,26.4,299.2,34.1,299.2,50.2z M376,89.8
			l-16.3,0l-11.7-35l-12.4,35h-16.2L300.1,28h18.8L329,63l12.2-35h15.1l11.4,35.4l11-35.4H398L376,89.8z M506.5,70.9
			c0,11.4-7.9,20.3-25.5,20.3c-7.9,0-15-1.2-22.6-3.3l2.7-15.2c6.1,2.4,12.1,3.5,18.5,3.5c5.2,0,9-1.3,9-4.1c0-2.9-3.2-3.7-9.7-5.6
			c-3.1-1-5.9-2-8.3-3c-8.3-3.5-12.4-8.8-12.4-17.1c0-11.7,9-20.2,25.7-20.2c7.1,0,13.4,1.2,19.8,2.6L501,44.1
			c-5.8-1.7-11.2-2.9-17-2.9c-5.4,0-7.8,1.8-7.8,4.5c0,2.5,2.4,3.6,8.6,5.2c3.1,0.9,5.9,1.8,8.4,2.7
			C503.1,57.1,506.5,63.1,506.5,70.9z M454.7,56.2c0-16.6-9.2-29.9-27.9-30c-18.7,0-31.6,13-31.6,33.5c0,19.1,11.5,31.5,31.9,31.5
			c9.1,0,16.6-2.3,24.2-5.6L448.7,71c-5.8,2.6-11.7,4.6-18.7,4.6c-10.5,0-14.9-4.6-15.5-11l39.7,0C454.1,64.7,454.7,57.6,454.7,56.2
			z M414.7,51.2c1.1-5.4,3.9-10.4,11.4-10.4c7.6,0,9.9,6,10.1,10.4L414.7,51.2z M551,88.7c-4.8,1.4-9.2,2.4-14.6,2.4
			c-17.6,0-20.9-11.9-20.9-22.6l0-25.1l-8.6,0V28l8.6,0V11.8h18.1V28h16.5v15.5l-16.5,0l0,23.9c0,4.8,0.8,7.9,7.3,7.9
			c2.7,0,5-0.5,7.6-1.2L551,88.7z M238.9,88.7c-4.8,1.4-9.2,2.4-14.6,2.4c-17.6,0-20.9-11.9-20.9-22.6l0-25.1l-8.6,0V28l8.6,0V11.8
			h18.1V28H238v15.5l-16.5,0l0,23.9c0,4.8,0.8,7.9,7.3,7.9c2.7,0,5-0.5,7.6-1.2L238.9,88.7z"/>
		<g>
			<g>
				<path class="st4" d="M553,19.3c-4.3,0-7.8-3.5-7.8-7.8c0-4.3,3.5-7.8,7.8-7.8c4.3,0,7.8,3.5,7.8,7.8
					C560.9,15.8,557.4,19.3,553,19.3z M553.1,5c-3.6,0-6.3,2.6-6.3,6.4c0,3.8,2.7,6.4,6.3,6.4c3.6,0,6.3-2.6,6.3-6.4
					C559.4,7.7,556.7,5,553.1,5z M555,15.9l-1.9-3c-0.4-0.7-0.6-0.9-1.3-0.9l0,3.9l-1.7,0l0-9.1l3.1,0c2,0,3,1.1,3,2.6
					c0,1.4-0.9,2.2-2.2,2.4c0.3,0.3,0.6,0.6,1.1,1.3l1.9,2.8L555,15.9z M553,8.2l-1.2,0l0,2.6l0.9,0c0.9,0,1.8-0.2,1.8-1.3
					C554.5,8.7,554.1,8.2,553,8.2z"/>
			</g>
		</g>
	</g>
	<path class="st4" d="M412.3,173.6c-15,0-23.3-11.9-23.3-24.7c0-12.8,8.6-24.4,23.5-24.4c6,0,10,1.4,13.4,3.6l-3.1,4.8
		c-2.7-1.8-6-3.1-10.5-3.1c-11,0-16.6,9-16.6,18.9c0,10.1,5.4,19.4,16.7,19.4c5.1,0,8.7-1.7,11.4-4l2.8,4.6
		C424.4,171.1,419,173.6,412.3,173.6z M450.6,172.8c-0.3-0.9-0.5-3-0.6-4.1c-1.6,2-5,4.9-10.1,4.9c-5.8,0-9.9-3.6-9.9-9.3
		c0-9,9.8-11.8,18.3-11.8h1.4v-3c0-4.1-1.4-6.7-6.6-6.7c-4.8,0-7.6,2.6-8.9,3.6l-3-4.1c1.8-1.6,5.5-4.7,12.4-4.7
		c7.9,0,12.1,3.6,12.1,11.6v15.2c0,3.7,0.4,6.5,0.9,8.2H450.6z M449.7,156.7h-1.4c-7,0-12,1.9-12,7.4c0,3.3,2.8,4.6,4.8,4.6
		c4.8,0,7.5-3.1,8.6-4.6V156.7z M481.9,144.1c-0.4-0.2-1.3-0.6-3.1-0.6c-4.9,0-7.7,5.5-8.2,6.6v22.7h-6v-34.2h6v5.2
		c1.4-2.3,4.3-6,9-6c2.2,0,3.3,0.5,3.8,0.7L481.9,144.1z M515.5,138.6v4.5h-5c1.4,2,2.2,4.5,2.2,7.2c0,7.2-5.3,12.5-13.9,12.5
		c-1.4,0-2.6-0.1-3.8-0.4c-0.8,0.4-2.1,1.2-2.1,2.7c0,1.8,2.1,2.5,5.3,2.6c7.4,0.4,17.5-0.1,17.5,10.5c0,7.1-7.9,11.5-17.2,11.5
		c-8,0-14-2.8-14-9.5c0-3.8,2.3-6.8,5.8-8.7c-1.8-0.9-3.1-2.5-3.1-5c0-2.5,1.6-4.5,3.6-5.5c-3.8-2.2-6.1-6-6.1-10.6
		c0-7.3,5.4-12.5,14-12.5c2.1,0,3.9,0.3,5.5,0.9H515.5z M490.3,179.4c0,3.1,2.5,5.7,8.4,5.7c6.5,0,10.8-2.6,10.8-6.6
		c0-5-4.5-5-8.7-5.3c-2.1-0.1-4.3-0.2-6.3-0.5C491.7,174.3,490.3,176.6,490.3,179.4z M506.5,150.2c0-4.6-2.9-7.9-7.9-7.9
		s-7.9,3.3-7.9,7.9s2.9,7.9,7.9,7.9S506.5,154.9,506.5,150.2z M534.7,173.6c-11.6,0-16.1-9.7-16.1-17.9c0-8.1,4.3-18,15.9-18
		c11.6,0,16.5,9.7,16.5,17.8C551.1,163.7,546.4,173.6,534.7,173.6z M534.5,142.7c-6.8,0-9.5,5.7-9.5,12.9c0,7.2,3,13.1,9.8,13.1
		c6.8,0,9.8-5.8,9.8-12.9C544.6,148.6,541.2,142.7,534.5,142.7z"/>
</g>
</svg>
