<svg xmlns="http://www.w3.org/2000/svg" viewBox="0 0 453 287"><defs><style>.cls-1{fill:#008020;}.cls-2{fill:#fff;}</style></defs><title>Fresh_Primary_453x287</title><g id="Layer_2" data-name="Layer 2"><g id="Layer_1-2" data-name="Layer 1"><rect class="cls-1" width="453" height="287"/><path class="cls-2" d="M57.69,189.74v2.16H50.48v9H48V181.09h10.7v2.16H50.48v6.49Z"/><path class="cls-2" d="M68.68,186.79,68.39,189a6.82,6.82,0,0,0-1.64-.21,5.13,5.13,0,0,0-3.24,1.06v11H61.17V186.82h1.55a1.76,1.76,0,0,1,.41.87,6.44,6.44,0,0,1,3.68-1.11A7.5,7.5,0,0,1,68.68,186.79Z"/><path class="cls-2" d="M82.94,194.5H72.45c.17,2.89,1.87,4.65,4.88,4.65a10.55,10.55,0,0,0,4.32-1l.7,1.93a12.44,12.44,0,0,1-5.14,1.11c-4.44,0-7.13-2.86-7.13-7.39s2.77-7.36,6.84-7.36c3.56,0,6.1,2.3,6.1,6.51C83,193.39,83,194,82.94,194.5Zm-2.25-1.84c0-2.92-1.61-4.24-3.83-4.24-2.43,0-4.06,1.61-4.36,4.24Z"/><path class="cls-2" d="M89.48,201.22a10.67,10.67,0,0,1-4.24-.84l.35-2.08a10,10,0,0,0,3.8.85c2,0,3-.67,3-2.05s-1.05-1.75-3.36-2.54c-3-1-3.71-2.37-3.71-4.18,0-2.42,2-3.91,5.17-3.91a8.5,8.5,0,0,1,3.62.7l-.46,2a8.48,8.48,0,0,0-3.1-.61c-2.07,0-2.92.85-2.92,1.9s.87,1.72,3.12,2.48c2.75.94,3.95,2,3.95,4.12C94.71,199.53,93,201.22,89.48,201.22Z"/><path class="cls-2" d="M109.76,192.11v8.76h-2.34v-8.21c0-3.13-1.08-4-3.27-4a7.45,7.45,0,0,0-3.77,1.05v11.19H98v-20.6h2.34v7.22a8.91,8.91,0,0,1,4.17-1C108.09,186.47,109.76,188.34,109.76,192.11Z"/><path class="cls-2" d="M131.14,189.74v2.16h-7.22v9h-2.48V181.09h10.69v2.16h-8.21v6.49Z"/><path class="cls-2" d="M143.91,192v8.12a14.33,14.33,0,0,1-5.38,1.14c-3.1,0-5.14-1.31-5.14-4,0-3.39,3.36-4.65,8.18-5V192c0-2.31-1-3.39-3.1-3.39a9.6,9.6,0,0,0-3.71.76l-.44-2.08a12.87,12.87,0,0,1,4.3-.78C142,186.47,143.91,188,143.91,192Zm-2.34,6.66v-4.56c-4.47.32-5.85,1.38-5.85,3,0,1.38.91,2.19,3,2.19A7.07,7.07,0,0,0,141.57,198.62Z"/><path class="cls-2" d="M150.92,201.22a10.67,10.67,0,0,1-4.24-.84l.35-2.08a9.93,9.93,0,0,0,3.8.85c2,0,3-.67,3-2.05s-1.05-1.75-3.36-2.54c-2.95-1-3.71-2.37-3.71-4.18,0-2.42,2-3.91,5.17-3.91a8.5,8.5,0,0,1,3.62.7l-.47,2a8.38,8.38,0,0,0-3.09-.61c-2.08,0-2.92.85-2.92,1.9s.87,1.72,3.12,2.48c2.75.94,4,2,4,4.12C156.15,199.53,154.39,201.22,150.92,201.22Z"/><path class="cls-2" d="M166.05,200.73a5.61,5.61,0,0,1-2.31.49c-2.48,0-3.62-1.52-3.62-3.94v-8.51H158v-2h2.13v-3.54h2.34v3.54h3.09v2h-3.09v7.86c0,1.7.49,2.46,1.84,2.46a6.34,6.34,0,0,0,1.37-.26Z"/><path class="cls-2" d="M84,99.73H61.21v13.76H80.76v11.38H61.21v25.59H48V88.35H84Z"/><path class="cls-2" d="M117.09,105.14l-1.47,11.56a17.38,17.38,0,0,0-5.14-.73,18,18,0,0,0-9,2.29v32.2H89.29V105.32h8a5.37,5.37,0,0,1,1.65,2.57,21.6,21.6,0,0,1,12-3.58A19.62,19.62,0,0,1,117.09,105.14Z"/><path class="cls-2" d="M161.31,132H131c1.1,5.78,5.05,9,12.57,9a36.27,36.27,0,0,0,12.3-2.57l3.48,9.91a46.45,46.45,0,0,1-16.88,3.31c-15.14,0-24-9-24-24,0-14,9.09-23.49,22.48-23.49,12.57,0,20.74,8.44,20.74,22.11A43.65,43.65,0,0,1,161.31,132Zm-11.93-8.9c0-5.59-3.39-9.17-8.8-9.17s-8.9,3.67-9.64,9.17Z"/><path class="cls-2" d="M181.59,151.66a37.89,37.89,0,0,1-14.13-2.48l1.46-10.37a37.39,37.39,0,0,0,12.21,2.39c5,0,7-1.29,7-3.86s-3-3.39-9.08-5.23c-9.36-2.75-12-7.89-12-13.94,0-8.54,6.79-14,18.81-14A32.25,32.25,0,0,1,197.46,106l-1.84,10.1a27.14,27.14,0,0,0-9.08-1.56c-5.32,0-7.62,1.37-7.62,3.67s1.84,3.39,8.72,5.23c8.17,2.29,12.3,6.14,12.3,13.58C199.94,145.33,194.34,151.66,181.59,151.66Z"/><path class="cls-2" d="M247.74,121.84v28.62h-12.3V124.77c0-7.06-2.66-9.45-7.8-9.45a18.11,18.11,0,0,0-9,2.57v32.57h-12.2V85.78h12.2v20.73a28.09,28.09,0,0,1,11.47-2.38C241.68,104.13,247.74,110.64,247.74,121.84Z"/></g></g></svg>