<svg xmlns="http://www.w3.org/2000/svg" viewBox="0 0 453 287"><defs><style>.cls-1{fill:#ffbf27;}.cls-2{fill:#fff;}</style></defs><title>NFG_Primary_453x287</title><g id="Layer_2" data-name="Layer 2"><g id="Layer_1-2" data-name="Layer 1"><rect class="cls-1" width="453" height="287"/><path class="cls-2" d="M62.59,114.23a12.38,12.38,0,0,1-1.47-2.84h-.18c.09,1,.09,2.19.09,3.29v35.78H48V88.51H59.29L86,124.75a12.11,12.11,0,0,1,1.47,2.83h.18c-.09-1-.18-2.19-.18-3.29V88.51h13.08v62H89.31Z"/><path class="cls-2" d="M144.94,99.86H122.25v13.72h19.49v11.35H122.25v25.53H109.07V88.51h35.87Z"/><path class="cls-2" d="M203.23,145.7a40.64,40.64,0,0,1-21.51,6c-19.4,0-32-12-32-31.93,0-20.5,13.64-32.4,33.59-32.4a36.82,36.82,0,0,1,17.48,4.21l-3.66,11.81a29.11,29.11,0,0,0-13.91-3.76c-11.9,0-19.77,7-19.77,20,0,12.27,6.86,20,18.39,20a21,21,0,0,0,8.61-1.55V127.49H179.07V116.15h24.16Z"/><path class="cls-2" d="M50.9,186.41a4.34,4.34,0,0,1-.5-.9c0,.29,0,.73,0,1.08v14.15H48V181h1.9l10.69,14.36a4.67,4.67,0,0,1,.49.91c0-.29,0-.73,0-1.08V181h2.45v19.75H61.59Z"/><path class="cls-2" d="M78.92,194.39H68.47c.17,2.89,1.86,4.63,4.86,4.63a10.5,10.5,0,0,0,4.31-1l.7,1.93a12.51,12.51,0,0,1-5.13,1.1c-4.42,0-7.1-2.85-7.1-7.37s2.76-7.34,6.81-7.34c3.56,0,6.09,2.3,6.09,6.5A13.82,13.82,0,0,1,78.92,194.39Zm-2.24-1.83c.06-2.92-1.6-4.23-3.82-4.23-2.41,0-4,1.61-4.34,4.23Z"/><path class="cls-2" d="M85.48,193.67l-5-6.94h2.62l3.73,5.19,3.61-5.19h2.59l-4.89,7,5,7H90.58l-3.79-5.27-3.64,5.27H80.5Z"/><path class="cls-2" d="M102.7,200.6a5.59,5.59,0,0,1-2.3.49c-2.48,0-3.61-1.51-3.61-3.93v-8.48H94.66v-2h2.13v-3.52h2.33v3.52h3.08v2H99.12v7.84c0,1.69.49,2.45,1.83,2.45a5.82,5.82,0,0,0,1.37-.27Z"/><path class="cls-2" d="M121.9,189.64v2.16h-7.2v8.94h-2.47V181h10.66v2.16H114.7v6.46Z"/><path class="cls-2" d="M126.56,180.21h2.33v20.53h-2.33Z"/><path class="cls-2" d="M132.33,182.65a1.63,1.63,0,1,1,1.63,1.61A1.59,1.59,0,0,1,132.33,182.65Zm.47,4.08h2.33v14H132.8Z"/><path class="cls-2" d="M148.61,187.34a1.33,1.33,0,0,1,.32-.61h1.58v14.48c0,4.28-2.19,6.26-6.67,6.26a13.68,13.68,0,0,1-4.55-.81l.44-2.16a11.8,11.8,0,0,0,4.11.85c2.82,0,4.34-1.17,4.34-3.94v-1.13a6.71,6.71,0,0,1-3.24.81c-4.6,0-7-3-7-7.31,0-4.63,3-7.4,7.08-7.4A7.44,7.44,0,0,1,148.61,187.34Zm-8.33,6.47c0,3.64,2.1,5.16,4.72,5.16a5.11,5.11,0,0,0,3.18-.94v-8.59a5.26,5.26,0,0,0-3.06-.93C142.18,188.51,140.28,190.49,140.28,193.81Z"/><path class="cls-2" d="M165.51,192v8.74h-2.33v-8.18c0-3.12-1.08-4-3.26-4a7.44,7.44,0,0,0-3.76,1.05v11.15h-2.33V180.21h2.33v7.19a9,9,0,0,1,4.17-1C163.85,186.38,165.51,188.25,165.51,192Z"/><path class="cls-2" d="M176.06,200.6a5.55,5.55,0,0,1-2.3.49c-2.48,0-3.61-1.51-3.61-3.93v-8.48H168v-2h2.13v-3.52h2.33v3.52h3.09v2h-3.09v7.84c0,1.69.49,2.45,1.83,2.45a5.73,5.73,0,0,0,1.37-.27Z"/><path class="cls-2" d="M200.45,199.26a12,12,0,0,1-6.44,1.83c-6.15,0-10-4-10-10.16s4-10.26,10.34-10.26a11.53,11.53,0,0,1,5.56,1.4l-.73,2.24a9.73,9.73,0,0,0-4.83-1.34c-4.84,0-7.78,3-7.78,7.93s2.8,7.95,7.46,7.95a8.35,8.35,0,0,0,4.05-1v-5.13h-4.49v-2.15h6.88Z"/><path class="cls-2" d="M215.33,200.22a16.41,16.41,0,0,1-5.06.87c-4.81,0-6.62-2.09-6.62-5.88v-8.48H206v7.81c0,3.32,1.23,4.43,4.29,4.43a8.85,8.85,0,0,0,2.73-.47V186.73h2.33Z"/><path class="cls-2" d="M229.23,191.86V200a14.41,14.41,0,0,1-5.36,1.13c-3.08,0-5.12-1.31-5.12-4,0-3.38,3.35-4.63,8.15-5v-.2c0-2.3-1-3.38-3.09-3.38a9.51,9.51,0,0,0-3.69.76l-.44-2.07a12.52,12.52,0,0,1,4.28-.79C227.31,186.38,229.23,187.9,229.23,191.86Zm-2.33,6.64V194c-4.45.32-5.82,1.37-5.82,3,0,1.37.9,2.18,2.94,2.18A7,7,0,0,0,226.9,198.5Z"/><path class="cls-2" d="M240.51,186.7l-.29,2.22a6.81,6.81,0,0,0-1.63-.21,5.2,5.2,0,0,0-3.24,1v11H233v-14h1.55a1.76,1.76,0,0,1,.4.88,6.43,6.43,0,0,1,3.67-1.11A7.89,7.89,0,0,1,240.51,186.7Z"/><path class="cls-2" d="M252,191.86V200a14.41,14.41,0,0,1-5.36,1.13c-3.09,0-5.13-1.31-5.13-4,0-3.38,3.35-4.63,8.16-5v-.2c0-2.3-1-3.38-3.09-3.38a9.52,9.52,0,0,0-3.7.76l-.44-2.07a12.58,12.58,0,0,1,4.29-.79C250,186.38,252,187.9,252,191.86Zm-2.33,6.64V194c-4.46.32-5.83,1.37-5.83,3,0,1.37.91,2.18,2.94,2.18A7,7,0,0,0,249.63,198.5Z"/><path class="cls-2" d="M266.85,192v8.74h-2.33v-8.18c0-3.12-1.08-4-3.27-4a7.38,7.38,0,0,0-3.75,1.05v11.15h-2.33v-14h1.6a1.51,1.51,0,0,1,.35.73,10.14,10.14,0,0,1,4.54-1.08C265.19,186.38,266.85,188.25,266.85,192Z"/><path class="cls-2" d="M277.39,200.6a5.55,5.55,0,0,1-2.3.49c-2.47,0-3.61-1.51-3.61-3.93v-8.48h-2.13v-2h2.13v-3.52h2.33v3.52h3.09v2h-3.09v7.84c0,1.69.5,2.45,1.84,2.45a5.92,5.92,0,0,0,1.37-.27Z"/><path class="cls-2" d="M292,194.39H281.56c.18,2.89,1.87,4.63,4.87,4.63a10.5,10.5,0,0,0,4.31-1l.7,1.93a12.54,12.54,0,0,1-5.13,1.1c-4.43,0-7.11-2.85-7.11-7.37s2.77-7.34,6.82-7.34c3.55,0,6.09,2.3,6.09,6.5A13.82,13.82,0,0,1,292,194.39Zm-2.24-1.83c.05-2.92-1.61-4.23-3.82-4.23-2.42,0-4,1.61-4.34,4.23Z"/><path class="cls-2" d="M307.08,194.39H296.63c.17,2.89,1.86,4.63,4.86,4.63a10.5,10.5,0,0,0,4.31-1l.7,1.93a12.51,12.51,0,0,1-5.13,1.1c-4.42,0-7.1-2.85-7.1-7.37s2.76-7.34,6.81-7.34c3.56,0,6.09,2.3,6.09,6.5A13.82,13.82,0,0,1,307.08,194.39Zm-2.24-1.83c.06-2.92-1.6-4.23-3.82-4.23-2.41,0-4,1.61-4.34,4.23Z"/><path class="cls-2" d="M321.91,200.31a18.44,18.44,0,0,1-4.8.78c-5,0-7.78-2.85-7.78-7.34s2.8-7.37,7.17-7.37a6.41,6.41,0,0,1,3.08.76v-6.93h2.33Zm-10.22-6.56c0,3.24,1.75,5.22,5.21,5.22a10.05,10.05,0,0,0,2.68-.44v-9.09a5,5,0,0,0-3.08-.93C313.64,188.51,311.69,190.49,311.69,193.75Z"/></g></g></svg>