<svg xmlns="http://www.w3.org/2000/svg" viewBox="0 0 453 287"><defs><style>.cls-1{fill:#304cb2;}.cls-2{fill:#fff;}</style></defs><title>Standard_Primary_453x287</title><g id="Layer_2" data-name="Layer 2"><g id="Layer_1-2" data-name="Layer 1"><rect class="cls-1" width="453" height="287"/><path class="cls-2" d="M53.62,201.22A12.5,12.5,0,0,1,48,199.94l.61-2.19a11.43,11.43,0,0,0,5,1.28c2.92,0,4.44-1.31,4.44-3.45,0-1.6-1-2.6-4.67-3.77s-4.88-3-4.88-5.52c0-3.39,2.57-5.55,6.84-5.55a10.89,10.89,0,0,1,4.67,1l-.58,2.17a9.22,9.22,0,0,0-4-.94c-3,0-4.38,1.37-4.38,3.33,0,1.78,1,2.6,4.18,3.63,4.15,1.31,5.35,3.09,5.35,5.55C60.52,198.83,58.06,201.22,53.62,201.22Z"/><path class="cls-2" d="M69.66,201.22c-4.21,0-7-3-7-7.39s2.77-7.36,7-7.36,7,3,7,7.36S73.84,201.22,69.66,201.22Zm0-12.62c-2.6,0-4.59,2-4.59,5.23s2,5.26,4.59,5.26,4.59-2,4.59-5.26S72.26,188.6,69.63,188.6Z"/><path class="cls-2" d="M91,200.35a16.64,16.64,0,0,1-5.09.87c-4.82,0-6.63-2.1-6.63-5.9v-8.5h2.34v7.83c0,3.33,1.22,4.44,4.29,4.44a9,9,0,0,0,2.75-.47v-11.8H91Z"/><path class="cls-2" d="M102.29,200.73a5.61,5.61,0,0,1-2.31.49c-2.48,0-3.62-1.52-3.62-3.94v-8.5H94.23v-2h2.13v-3.54H98.7v3.54h3.09v2H98.7v7.86c0,1.69.49,2.45,1.84,2.45a6.34,6.34,0,0,0,1.37-.26Z"/><path class="cls-2" d="M116.55,192.11v8.76h-2.34v-8.21c0-3.12-1.08-4-3.27-4a7.45,7.45,0,0,0-3.77,1.05v11.19h-2.34v-20.6h2.34v7.22a9,9,0,0,1,4.18-1C114.88,186.47,116.55,188.34,116.55,192.11Z"/><path class="cls-2" d="M129.31,190.91a9.25,9.25,0,0,1-.23-1c-.06.35-.15.73-.23,1l-3.25,10h-2.48l-4.18-14.05h2.46L124.2,197a12.11,12.11,0,0,1,.26,1.4,11.53,11.53,0,0,1,.33-1.37l3.27-10.2h2L133.38,197a10.19,10.19,0,0,1,.29,1.31,12,12,0,0,1,.26-1.28l2.86-10.2h2.43L135,200.87h-2.45Z"/><path class="cls-2" d="M153.33,194.5H142.84c.17,2.9,1.87,4.65,4.88,4.65a10.52,10.52,0,0,0,4.32-1l.71,1.93a12.45,12.45,0,0,1-5.15,1.11c-4.44,0-7.13-2.86-7.13-7.39s2.78-7.36,6.84-7.36c3.56,0,6.11,2.31,6.11,6.51A14,14,0,0,1,153.33,194.5Zm-2.25-1.84c.06-2.92-1.61-4.24-3.83-4.24-2.42,0-4.06,1.61-4.35,4.24Z"/><path class="cls-2" d="M159.87,201.22a10.4,10.4,0,0,1-4.23-.84l.35-2.08a9.89,9.89,0,0,0,3.8.85c2,0,3-.67,3-2.05s-1-1.75-3.36-2.54c-3-1-3.71-2.37-3.71-4.18,0-2.42,2-3.91,5.18-3.91a8.57,8.57,0,0,1,3.62.7l-.47,2a8.24,8.24,0,0,0-3.1-.62c-2.07,0-2.92.85-2.92,1.9s.88,1.73,3.13,2.49c2.75.93,3.94,2,3.94,4.12C165.1,199.53,163.35,201.22,159.87,201.22Z"/><path class="cls-2" d="M174.42,200.73a5.57,5.57,0,0,1-2.31.49c-2.48,0-3.62-1.52-3.62-3.94v-8.5h-2.13v-2h2.13v-3.54h2.34v3.54h3.1v2h-3.1v7.86c0,1.69.5,2.45,1.84,2.45a6.34,6.34,0,0,0,1.37-.26Z"/><path class="cls-2" d="M187.77,201.22a12.5,12.5,0,0,1-5.61-1.28l.62-2.19a11.38,11.38,0,0,0,5,1.28c2.93,0,4.45-1.31,4.45-3.45,0-1.6-1-2.6-4.68-3.77s-4.88-3-4.88-5.52c0-3.39,2.57-5.55,6.84-5.55a10.89,10.89,0,0,1,4.67,1l-.58,2.17a9.18,9.18,0,0,0-4-.94c-3,0-4.39,1.37-4.39,3.33,0,1.78,1,2.6,4.18,3.63,4.15,1.31,5.35,3.09,5.35,5.55C194.67,198.83,192.21,201.22,187.77,201.22Z"/><path class="cls-2" d="M204.51,200.73a5.55,5.55,0,0,1-2.3.49c-2.49,0-3.63-1.52-3.63-3.94v-8.5h-2.13v-2h2.13v-3.54h2.34v3.54H204v2h-3.1v7.86c0,1.69.5,2.45,1.84,2.45a6.23,6.23,0,0,0,1.37-.26Z"/><path class="cls-2" d="M217.52,192v8.12a14.33,14.33,0,0,1-5.38,1.14c-3.1,0-5.14-1.31-5.14-4,0-3.39,3.36-4.65,8.18-5V192c0-2.31-1-3.39-3.1-3.39a9.79,9.79,0,0,0-3.71.76l-.44-2.07a12.64,12.64,0,0,1,4.3-.79C215.59,186.47,217.52,188,217.52,192Zm-2.34,6.66v-4.56c-4.47.33-5.85,1.38-5.85,3,0,1.38.91,2.2,3,2.2A7.08,7.08,0,0,0,215.18,198.62Z"/><path class="cls-2" d="M232.44,192.11v8.76h-2.33v-8.21c0-3.12-1.08-4-3.28-4a7.51,7.51,0,0,0-3.77,1.05v11.19h-2.33V186.82h1.6a1.32,1.32,0,0,1,.35.73,10.26,10.26,0,0,1,4.56-1.08C230.78,186.47,232.44,188.34,232.44,192.11Z"/><path class="cls-2" d="M247.75,200.43a18.15,18.15,0,0,1-4.82.79c-5,0-7.8-2.86-7.8-7.36s2.8-7.39,7.19-7.39a6.31,6.31,0,0,1,3.09.76v-7h2.34Zm-10.25-6.57c0,3.24,1.75,5.23,5.23,5.23a10.05,10.05,0,0,0,2.68-.44v-9.11a4.92,4.92,0,0,0-3.09-.94C239.45,188.6,237.5,190.59,237.5,193.86Z"/><path class="cls-2" d="M261.1,192v8.12a14.29,14.29,0,0,1-5.37,1.14c-3.1,0-5.15-1.31-5.15-4,0-3.39,3.36-4.65,8.18-5V192c0-2.31-1-3.39-3.09-3.39a9.75,9.75,0,0,0-3.71.76l-.44-2.07a12.58,12.58,0,0,1,4.29-.79C259.17,186.47,261.1,188,261.1,192Zm-2.34,6.66v-4.56c-4.47.33-5.84,1.38-5.84,3,0,1.38.91,2.2,3,2.2A7,7,0,0,0,258.76,198.62Z"/><path class="cls-2" d="M272.41,186.79l-.29,2.22a6.82,6.82,0,0,0-1.64-.21,5.19,5.19,0,0,0-3.24,1.06v11H264.9V186.82h1.55a1.81,1.81,0,0,1,.41.87,6.51,6.51,0,0,1,3.68-1.11A7.5,7.5,0,0,1,272.41,186.79Z"/><path class="cls-2" d="M285.85,200.43a18.28,18.28,0,0,1-4.83.79c-5,0-7.8-2.86-7.8-7.36s2.81-7.39,7.19-7.39a6.38,6.38,0,0,1,3.1.76v-7h2.34Zm-10.26-6.57c0,3.24,1.75,5.23,5.23,5.23a10.18,10.18,0,0,0,2.69-.44v-9.11a5,5,0,0,0-3.1-.94C277.55,188.6,275.59,190.59,275.59,193.86Z"/><path class="cls-2" d="M66.46,151.65A47,47,0,0,1,48.11,148l2.57-11.46c4.4,1.83,10.09,3.67,15.78,3.67,6.79,0,10.73-2.67,10.73-7.34,0-3.95-3.21-5.6-12.57-8.45-12.38-3.67-15.5-10-15.5-18.16,0-12,9.08-19.09,23.85-19.09a39.43,39.43,0,0,1,15.42,2.94l-2.76,11.29a30.11,30.11,0,0,0-12.47-2.76c-7.53,0-10.83,3.21-10.83,7.25s2.2,5.51,11.47,8.35c12.66,3.76,16.7,9.08,16.7,17.89C90.5,142.57,82.33,151.65,66.46,151.65Z"/><path class="cls-2" d="M122.61,150.09a23.84,23.84,0,0,1-9.18,1.56c-9.63,0-14.13-5.13-14.13-14.49V115.5H93.16V105.32H99.3V93.85h12.21v11.47H121V115.5h-9.45v18.72c0,4.31,1.56,6.24,5.41,6.24a22,22,0,0,0,4.31-.64Z"/><path class="cls-2" d="M165.64,122.57v25.51c-8.17,2.47-13.86,3.57-19.09,3.57-12.2,0-18.72-4.86-18.72-13.76,0-9.45,8.54-15.14,25.6-16-.18-4.5-2.47-7-8.07-7a35.86,35.86,0,0,0-12.3,2.21l-1.74-10.74a52.38,52.38,0,0,1,15.32-2.29C159.49,104.13,165.64,110.09,165.64,122.57Zm-12.21,18.07V131c-9.81.46-13.39,2.75-13.39,6.42,0,2.57,1.74,4.5,6.42,4.5A22.39,22.39,0,0,0,153.43,140.64Z"/><path class="cls-2" d="M214.81,121.83v28.63H202.52V124.77c0-7.06-2.66-9.45-7.8-9.45a18.08,18.08,0,0,0-9,2.57v32.57H173.52V105.32h8.17a4.62,4.62,0,0,1,1.47,2.11,30.59,30.59,0,0,1,13.94-3.3C208.76,104.13,214.81,110.64,214.81,121.83Z"/><path class="cls-2" d="M264.63,149.18a72.9,72.9,0,0,1-17.07,2.47c-16.7,0-26.33-8.53-26.33-23.76,0-14.22,9.45-23.76,24.59-23.76a19.79,19.79,0,0,1,6.61,1V85.78h12.2Zm-31-21.11c0,8,4.22,12.48,12.66,12.48a23.49,23.49,0,0,0,6.15-.92V116.7a15.2,15.2,0,0,0-6.43-1.47C239,115.23,233.62,119.63,233.62,128.07Z"/><path class="cls-2" d="M309.58,122.57v25.51c-8.16,2.47-13.85,3.57-19.08,3.57-12.2,0-18.72-4.86-18.72-13.76,0-9.45,8.53-15.14,25.6-16-.18-4.5-2.48-7-8.07-7a35.86,35.86,0,0,0-12.3,2.21l-1.74-10.74a52.38,52.38,0,0,1,15.32-2.29C303.44,104.13,309.58,110.09,309.58,122.57Zm-12.2,18.07V131c-9.82.46-13.4,2.75-13.4,6.42,0,2.57,1.75,4.5,6.43,4.5A22.44,22.44,0,0,0,297.38,140.64Z"/><path class="cls-2" d="M345.27,105.14,343.8,116.7a17.38,17.38,0,0,0-5.13-.74,18,18,0,0,0-9,2.3v32.2h-12.2V105.32h8a5.3,5.3,0,0,1,1.65,2.57,21.6,21.6,0,0,1,12-3.58A19.33,19.33,0,0,1,345.27,105.14Z"/><path class="cls-2" d="M390,149.18A72.82,72.82,0,0,1,373,151.65c-16.7,0-26.33-8.53-26.33-23.76,0-14.22,9.45-23.76,24.59-23.76a19.73,19.73,0,0,1,6.6,1V85.78H390Zm-31-21.11c0,8,4.22,12.48,12.66,12.48a23.44,23.44,0,0,0,6.15-.92V116.7a15.15,15.15,0,0,0-6.42-1.47C364.45,115.23,359,119.63,359,128.07Z"/></g></g></svg>